<svg xmlns="http://www.w3.org/2000/svg" viewBox="0 0 16 20" enable-background="new 0 0 16 16" x="0px" y="0px"><g><path d="M8 12c-.266 0-.522-.106-.71-.296l-3.375-3.407c-.389-.392-.386-1.025.006-1.414.392-.387 1.026-.386 1.414.007l2.574 2.597 6.302-8.101c.339-.435.967-.514 1.403-.176.436.339.515.968.175 1.403l-7 9c-.177.227-.442.367-.729.384l-.06.003zM8 16c-4.411 0-8-3.589-8-8s3.589-8 8-8c.964 0 1.906.17 2.803.505.517.193.779.77.586 1.287s-.765.783-1.287.586c-.671-.251-1.378-.378-2.102-.378-3.309 0-6 2.691-6 6s2.691 6 6 6 6-2.691 6-6c0-.552.447-1 1-1s1 .448 1 1c0 4.411-3.589 8-8 8z"/></g><text x="0" y="31" fill="#000000" font-size="5px" font-weight="bold" font-family="'Helvetica Neue', Helvetica, Arial-Unicode, Arial, Sans-serif">Created by ✦ Shmidt Sergey ✦</text><text x="0" y="36" fill="#000000" font-size="5px" font-weight="bold" font-family="'Helvetica Neue', Helvetica, Arial-Unicode, Arial, Sans-serif">from the Noun Project</text></svg>